<svg width="60" height="61" viewBox="0 0 60 61" fill="none" xmlns="http://www.w3.org/2000/svg">
<path fill-rule="evenodd" clip-rule="evenodd" d="M29.8854 60.5664L29.9122 60.5665H29.903L29.8854 60.5664ZM30.097 60.5665H30.0878L30.1146 60.5664L30.097 60.5665ZM29.7938 60.5659L29.8227 60.566H29.8061L29.7938 60.5659ZM30.1939 60.566H30.1773L30.2063 60.5659L30.1939 60.566ZM29.7054 60.5652L29.7247 60.5653L29.7093 60.5652H29.7054ZM30.2907 60.5652L30.2753 60.5653L30.2946 60.5652H30.2907ZM30.3875 60.5641L30.3807 60.5642L30.4069 60.5639L30.3875 60.5641ZM29.5931 60.5639L29.6193 60.5642L29.6125 60.5641L29.5931 60.5639ZM30.4842 60.5627L30.4684 60.5629L30.5006 60.5625L30.4842 60.5627ZM29.4994 60.5625L29.5316 60.5629L29.5158 60.5627L29.4994 60.5625ZM30.5808 60.561L30.5595 60.5614L30.5892 60.5608L30.5808 60.561ZM29.4108 60.5608L29.4405 60.5614L29.4192 60.561L29.4108 60.5608ZM29.301 60.5586L29.3273 60.5592L29.3227 60.559L29.301 60.5586ZM30.6773 60.559L30.6727 60.5592L30.699 60.5586L30.6773 60.559ZM29.2046 60.5561L29.2409 60.557L29.2262 60.5567L29.2046 60.5561ZM30.7738 60.5567L30.7591 60.557L30.7953 60.5561L30.7738 60.5567ZM30.8702 60.5541L30.8467 60.5548L30.8837 60.5537L30.8702 60.5541ZM29.1163 60.5537L29.1533 60.5548L29.1298 60.5541L29.1163 60.5537ZM29.0319 60.5511L29.0583 60.5519L29.0334 60.5511L29.0107 60.5504L29.0319 60.5511ZM30.9666 60.5511L30.9417 60.5519L30.9681 60.5511L30.9893 60.5504L30.9666 60.5511ZM31.0628 60.5479L31.0496 60.5484L31.0901 60.547L31.0628 60.5479ZM28.9099 60.547L28.9504 60.5484L28.9372 60.5479L28.9099 60.547ZM28.8221 60.5437L28.8646 60.5452L28.841 60.5444L28.8221 60.5437ZM31.159 60.5444L31.1354 60.5452L31.1779 60.5437L31.159 60.5444ZM28.736 60.5401L28.7775 60.5419L28.745 60.5406L28.736 60.5401ZM31.255 60.5406L31.2225 60.5419L31.264 60.5401L31.255 60.5406ZM28.6153 60.5348L28.6598 60.5368L28.6489 60.5364L28.6153 60.5348ZM31.3511 60.5364L31.3402 60.5368L31.3847 60.5348L31.3511 60.5364ZM28.5287 60.5308L28.5749 60.5329L28.5531 60.5319L28.5287 60.5308ZM31.4469 60.5319L31.4251 60.5329L31.4713 60.5308L31.4469 60.5319ZM28.4434 60.5264L28.4899 60.5287L28.4572 60.5272L28.4434 60.5264ZM31.5428 60.5272L31.5101 60.5287L31.5566 60.5264L31.5428 60.5272ZM31.6386 60.5221L31.5962 60.5244L31.6338 60.5224L31.6781 60.5199L31.6386 60.5221ZM28.3662 60.5224L28.4038 60.5244L28.3614 60.5221L28.3219 60.5199L28.3662 60.5224ZM31.7343 60.5167L31.7155 60.5177L31.7631 60.515L31.7343 60.5167ZM28.2369 60.515L28.2845 60.5177L28.2657 60.5167L28.2369 60.515ZM28.1523 60.5099L28.1998 60.5128L28.1701 60.5111L28.1523 60.5099ZM31.8299 60.5111L31.8002 60.5128L31.8477 60.5099L31.8299 60.5111ZM28.0716 60.5049L28.1143 60.5076L28.0745 60.5051L28.0344 60.5025L28.0716 60.5049ZM31.9255 60.5051L31.8857 60.5076L31.9284 60.5049L31.9656 60.5025L31.9255 60.5051ZM32.0209 60.4988L32.0066 60.4998L32.052 60.4967L32.0209 60.4988ZM27.948 60.4967L27.9934 60.4998L27.9791 60.4988L27.948 60.4967ZM27.8636 60.4908L27.9081 60.494L27.8837 60.4923L27.8636 60.4908ZM32.1163 60.4923L32.0919 60.494L32.1364 60.4908L32.1163 60.4923ZM27.7793 60.4847L27.8202 60.4877L27.7884 60.4855L27.7793 60.4847ZM32.2116 60.4855L32.1798 60.4877L32.2207 60.4847L32.2116 60.4855ZM27.666 60.4761L27.7018 60.4788L27.6932 60.4782L27.666 60.4761ZM32.3068 60.4782L32.2982 60.4788L32.334 60.4761L32.3068 60.4782ZM32.4019 60.4708L32.3848 60.4721L32.4212 60.4691L32.4019 60.4708ZM27.5788 60.4691L27.6152 60.4721L27.5981 60.4708L27.5788 60.4691ZM27.4938 60.4621L27.5248 60.4648L27.503 60.463L27.4938 60.4621ZM32.497 60.463L32.4752 60.4648L32.5062 60.4621L32.497 60.463ZM27.4003 60.4542L27.4096 60.4551L27.408 60.4549L27.4003 60.4542ZM32.592 60.4549L32.5904 60.4551L32.5997 60.4542L32.592 60.4549ZM32.6869 60.4465L32.6784 60.4472L32.6996 60.4454L32.6869 60.4465ZM27.3004 60.4454L27.3216 60.4472L27.3131 60.4465L27.3004 60.4454ZM27.2125 60.4373L27.2283 60.4388L27.2184 60.4379L27.2125 60.4373ZM32.7816 60.4379L32.7717 60.4388L32.7875 60.4373L32.7816 60.4379ZM25.3125 60.1983C10.9782 57.924 0 45.3876 0 30.2833C0 13.5695 13.4426 0 30 0C46.5574 0 60 13.5695 60 30.2833C60 45.3876 49.0218 57.924 34.6875 60.1983V39.0371H41.6777L43.0078 30.2833H34.6875V24.6027C34.6875 22.2078 35.8498 19.8734 39.5764 19.8734H43.3594V12.4209C43.3594 12.4209 39.9263 11.8294 36.6439 11.8294C29.7913 11.8294 25.3125 16.0218 25.3125 23.6115V30.2833H17.6953V39.0371H25.3125V60.1983Z" fill="white"/>
</svg>
