<svg width="60" height="61" viewBox="0 0 60 61" fill="none" xmlns="http://www.w3.org/2000/svg">
<path fill-rule="evenodd" clip-rule="evenodd" d="M30 0C46.5574 0 60 13.5695 60 30.2832C60 46.997 46.5574 60.5665 30 60.5665C13.4426 60.5665 0 46.997 0 30.2832C0 13.5695 13.4426 0 30 0ZM30 11.3562C24.9079 11.3562 24.2693 11.378 22.2694 11.4701C20.2737 11.562 18.9107 11.882 17.7179 12.3499C16.485 12.8336 15.4393 13.4808 14.397 14.533C13.3546 15.5852 12.7134 16.6408 12.2343 17.8853C11.7708 19.0892 11.4539 20.4651 11.3627 22.4796C11.2716 24.4984 11.25 25.143 11.25 30.2832C11.25 35.4235 11.2716 36.0681 11.3627 38.0869C11.4539 40.1014 11.7708 41.4773 12.2343 42.6812C12.7134 43.9257 13.3546 44.9813 14.397 46.0336C15.4393 47.0858 16.485 47.733 17.7179 48.2167C18.9107 48.6845 20.2737 49.0044 22.2694 49.0963C24.2693 49.1885 24.9079 49.2103 30 49.2103C35.0921 49.2103 35.7307 49.1885 37.7306 49.0963C39.7263 49.0044 41.0893 48.6845 42.282 48.2167C43.5149 47.733 44.5605 47.0858 45.603 46.0336C46.6454 44.9813 47.2866 43.9257 47.7657 42.6812C48.2291 41.4773 48.5461 40.1014 48.6371 38.0869C48.7284 36.0681 48.75 35.4235 48.75 30.2832C48.75 25.143 48.7284 24.4984 48.6371 22.4796C48.5461 20.4651 48.2291 19.0892 47.7657 17.8853C47.2866 16.6408 46.6454 15.5852 45.603 14.533C44.5605 13.4808 43.5149 12.8336 42.282 12.3499C41.0893 11.882 39.7263 11.562 37.7306 11.4701C35.7307 11.378 35.0921 11.3562 30 11.3562ZM30 14.7665C35.0065 14.7665 35.5995 14.7858 37.5766 14.8769C39.4048 14.9611 40.3975 15.2694 41.0582 15.5286C41.9334 15.8718 42.558 16.2821 43.2141 16.9444C43.8703 17.6066 44.2766 18.2373 44.6167 19.1207C44.8734 19.7876 45.1789 20.7897 45.2623 22.6351C45.3525 24.6309 45.3716 25.2295 45.3716 30.2832C45.3716 35.337 45.3525 35.9356 45.2623 37.9314C45.1789 39.7768 44.8734 40.7789 44.6167 41.4458C44.2766 42.3293 43.8703 42.9599 43.2141 43.6221C42.558 44.2845 41.9334 44.6946 41.0582 45.0379C40.3975 45.2971 39.4048 45.6055 37.5766 45.6896C35.5998 45.7807 35.0068 45.8 30 45.8C24.9932 45.8 24.4003 45.7807 22.4234 45.6896C20.5952 45.6055 19.6025 45.2971 18.9418 45.0379C18.0666 44.6946 17.442 44.2845 16.7858 43.6221C16.1297 42.9599 15.7234 42.3293 15.3833 41.4458C15.1266 40.7789 14.8211 39.7768 14.7376 37.9314C14.6474 35.9356 14.6284 35.337 14.6284 30.2832C14.6284 25.2295 14.6474 24.6309 14.7376 22.6351C14.8211 20.7897 15.1266 19.7876 15.3833 19.1207C15.7234 18.2373 16.1297 17.6066 16.7858 16.9444C17.442 16.2821 18.0666 15.8718 18.9418 15.5286C19.6025 15.2694 20.5952 14.9611 22.4234 14.8769C24.4005 14.7858 24.9935 14.7665 30 14.7665ZM30 20.564C24.6824 20.564 20.3716 24.9154 20.3716 30.2832C20.3716 35.6511 24.6824 40.0025 30 40.0025C35.3176 40.0025 39.6284 35.6511 39.6284 30.2832C39.6284 24.9154 35.3176 20.564 30 20.564ZM30 36.5922C26.5482 36.5922 23.75 33.7676 23.75 30.2832C23.75 26.7989 26.5482 23.9743 30 23.9743C33.4518 23.9743 36.25 26.7989 36.25 30.2832C36.25 33.7676 33.4518 36.5922 30 36.5922ZM42.2589 20.18C42.2589 21.4344 41.2514 22.4511 40.0087 22.4511C38.7662 22.4511 37.7589 21.4344 37.7589 20.18C37.7589 18.9256 38.7662 17.9088 40.0087 17.9088C41.2514 17.9088 42.2589 18.9256 42.2589 20.18Z" fill="white"/>
</svg>
