<svg width="201" height="83" viewBox="0 0 201 83" fill="none" xmlns="http://www.w3.org/2000/svg">
<path d="M88.5469 24.9063H99.5156L61.0469 64.0313H50.3906L11.9844 25H22.8281L55.7344 56.4375L88.5469 24.9063ZM141.641 48.4063V40.6875H180.703V54.4688C180.703 60.8646 177.568 64.0625 171.297 64.0625H115.078C108.786 64.0625 105.651 60.8646 105.672 54.4688L105.766 34.4063C105.786 28.1563 108.859 25.0313 114.984 25.0313H180.703V32.8125H116.609C114.589 32.8125 113.578 33.9375 113.578 36.1875V53.0938C113.578 55.2188 114.589 56.2813 116.609 56.2813H169.828C171.911 56.2813 172.943 55.2292 172.922 53.125L172.891 48.4063H141.641Z" fill="white"/>
<line x1="148.275" y1="1.50002" x2="198.016" y2="1.50002" stroke="white" stroke-width="3"/>
<line x1="3" y1="80.5" x2="52.7409" y2="80.5" stroke="white" stroke-width="3"/>
<line x1="1.5" y1="82" x2="1.5" y2="32" stroke="white" stroke-width="3"/>
<line x1="199.5" y1="50" x2="199.5" y2="-1.66893e-06" stroke="white" stroke-width="3"/>
</svg>
